<svg xmlns="http://www.w3.org/2000/svg" width="48" height="48" viewBox="0 0 48 48" fill="none">
  <circle cx="24" cy="24" r="20" fill="none"></circle>
  <path fill="#FFFFFF" d="M24 12c-6.627 0-12 5.373-12 12 0 2.203.602 4.263 1.642 6.036l-.932 2.883 2.954-.922A11.944 11.944 0 0024 36c6.627 0 12-5.373 12-12S30.627 12 24 12zm6.613 17.087c-.272.764-1.596 1.484-2.197 1.58-.583.09-1.326.128-2.13-.132-.491-.156-1.12-.36-1.93-.705-3.396-1.46-5.613-5.065-5.782-5.305-.17-.24-1.38-1.84-1.38-3.512 0-1.672.873-2.492 1.182-2.827.31-.335.675-.418.9-.418.227 0 .45.002.648.012.21.012.488-.08.76.58.272.662.92 2.04 1 2.19.082.15.136.328.026.53-.11.203-.164.328-.32.51-.163.186-.343.414-.49.557-.164.16-.336.33-.144.648.19.318.84 1.392 1.8 2.258 1.238 1.108 2.28 1.452 2.6 1.618.319.167.503.148.69-.09.188-.237.792-.92 1-1.24.208-.317.417-.265.698-.16.28.106 1.765.834 2.07.986.305.152.508.225.582.35.073.124.073.718-.2 1.48z"></path>
</svg>
